<svg xmlns="http://www.w3.org/2000/svg" width="225" height="225" viewBox="0 0 225 225">
  <g id="Grupo_38" data-name="Grupo 38" transform="translate(-252 -1018)">
    <circle id="Elipse_1" data-name="Elipse 1" cx="112.5" cy="112.5" r="112.5" transform="translate(252 1018)" fill="#05c7f2"/>
    <g id="dog-food" transform="translate(308 1090.5)">
      <path id="Trazado_3111" data-name="Trazado 3111" d="M155.614,26.639c0,10.237-17.927,18.536-40.042,18.536-19.2,0-35.245-6.256-39.139-14.606a9.219,9.219,0,0,1-.9-3.93c0-10.205,17.823-18.486,39.85-18.531.065,0,.128,0,.191,0,22.115,0,40.042,8.3,40.042,18.534Zm0,0" transform="translate(-58.773 -5.918)" fill="#e04149"/>
      <path id="Trazado_3112" data-name="Trazado 3112" d="M117.828,120.742a252.682,252.682,0,0,1-110.226,0q3.01-22.752,6.033-45.579.159-1.2.317-2.4A10.415,10.415,0,0,1,25.8,63.825a252.716,252.716,0,0,0,73.838,0,10.413,10.413,0,0,1,11.842,8.937q.159,1.2.317,2.4,3.023,22.826,6.035,45.579Zm0,0" transform="translate(-5.915 -49.187)" fill="#edd464"/>
      <path id="Trazado_3113" data-name="Trazado 3113" d="M33.923,64.889A11.085,11.085,0,0,0,27,74.045c-.106.863-.211,1.729-.317,2.591q-2.872,23.393-5.727,46.713-6.7-1.121-13.353-2.607,3.01-22.752,6.033-45.579.159-1.2.317-2.4A10.415,10.415,0,0,1,25.8,63.825q4.056.6,8.128,1.064Zm0,0" transform="translate(-5.915 -49.186)" fill="#d8951e"/>
      <path id="Trazado_3114" data-name="Trazado 3114" d="M115.382,8.117c-8.132.22-22.3,14.291-22.3,20.918,0,2.146-7.062,2.308-16.644,1.544a9.219,9.219,0,0,1-.9-3.93c0-10.205,17.823-18.486,39.85-18.531Zm0,0" transform="translate(-58.773 -5.927)" fill="#cc2939"/>
      <path id="Trazado_3115" data-name="Trazado 3115" d="M132.95,75.163a252.542,252.542,0,0,1-85.2,2.218q-6.5-.939-12.955-2.218.159-1.2.317-2.4a10.415,10.415,0,0,1,11.844-8.937q4.056.6,8.128,1.064a252.73,252.73,0,0,0,65.71-1.064,10.413,10.413,0,0,1,11.842,8.937q.159,1.2.317,2.4Zm0,0" transform="translate(-27.073 -49.187)" fill="#eaeaea"/>
      <path id="Trazado_3116" data-name="Trazado 3116" d="M55.081,64.889a11.085,11.085,0,0,0-6.924,9.156c-.106.863-.211,1.729-.317,2.591-.031.247-.061.5-.092.744q-6.5-.939-12.955-2.218.159-1.2.317-2.4a10.415,10.415,0,0,1,11.844-8.937q4.056.6,8.128,1.064Zm0,0" transform="translate(-27.073 -49.187)" fill="#ccc"/>
      <path id="Trazado_3117" data-name="Trazado 3117" d="M150.131,198.7H172.1l3.053,3.053a7.625,7.625,0,0,0,10.886-10.679,7.625,7.625,0,0,0-10.886-10.68l-3.053,3.053H150.131l-3.053-3.053a7.625,7.625,0,0,0-10.885,10.679,7.625,7.625,0,0,0,10.885,10.68Zm0,0" transform="translate(-104.316 -138.24)" fill="#fff"/>
      <path id="Trazado_3118" data-name="Trazado 3118" d="M129.249,197.027a9.314,9.314,0,0,0,13.171,0l2.559-2.559h20.57l2.559,2.559a9.314,9.314,0,0,0,13.171,0,9.37,9.37,0,0,0,1.078-11.872,9.371,9.371,0,0,0-1.078-11.873,9.314,9.314,0,0,0-13.171,0l-2.559,2.559H144.979l-2.559-2.559a9.314,9.314,0,0,0-13.171,0,9.371,9.371,0,0,0-1.077,11.873A9.368,9.368,0,0,0,129.249,197.027Zm2.308-13.043a5.938,5.938,0,0,1,8.477-8.316l3.053,3.053a1.685,1.685,0,0,0,1.193.494h21.967a1.69,1.69,0,0,0,1.193-.494l3.053-3.053a5.938,5.938,0,0,1,8.476,8.316,1.688,1.688,0,0,0,0,2.341,5.938,5.938,0,0,1-8.477,8.316l-3.053-3.053a1.685,1.685,0,0,0-1.193-.494H144.28a1.687,1.687,0,0,0-1.193.494l-3.053,3.053a5.938,5.938,0,0,1-8.477-8.316A1.688,1.688,0,0,0,131.557,183.984Zm0,0" transform="translate(-98.464 -132.324)"/>
      <path id="Trazado_3119" data-name="Trazado 3119" d="M113.585,71.334,111.1,52.581a1.687,1.687,0,1,0-3.345.443l2.279,17.217A251.429,251.429,0,0,1,56.8,75.952,251.41,251.41,0,0,1,3.563,70.241q2.791-21.1,5.6-42.272c7.542,1.439,15.219,2.55,22.849,3.3a1.54,1.54,0,0,0,.166.009,1.687,1.687,0,0,0,.163-3.366C24.744,27.164,17.1,26.055,9.6,24.618L9.71,23.8a8.727,8.727,0,0,1,9.925-7.49,254.252,254.252,0,0,0,74.332,0,8.725,8.725,0,0,1,9.921,7.488l.109.826a250.9,250.9,0,0,1-64.971,3.852,1.687,1.687,0,1,0-.239,3.365q9,.64,18.007.639a254.282,254.282,0,0,0,47.647-4.509l2.424,18.311a1.687,1.687,0,0,0,3.345-.443l-2.976-22.482A12.106,12.106,0,0,0,95.356,12.838C92.334,9.285,87.29,6.263,80.7,4.066A76.758,76.758,0,0,0,56.8.5c-.073,0-.145,0-.219,0A76.577,76.577,0,0,0,32.83,4.091C26.273,6.286,21.256,9.3,18.246,12.838A12.107,12.107,0,0,0,6.365,23.355l-.317,2.4Q3.025,48.581.015,71.335a1.688,1.688,0,0,0,1.3,1.868A254.765,254.765,0,0,0,56.8,79.327,254.8,254.8,0,0,0,112.282,73.2a1.687,1.687,0,0,0,1.3-1.869ZM33.9,7.291A73.152,73.152,0,0,1,56.613,3.876l.055,0H56.8A73.344,73.344,0,0,1,79.63,7.268a34.042,34.042,0,0,1,11.442,6.044,250.861,250.861,0,0,1-68.544,0A33.966,33.966,0,0,1,33.9,7.291Zm0,0" transform="translate(0 0)"/>
    </g>
  </g>
</svg>
