<svg xmlns="http://www.w3.org/2000/svg" width="225" height="225" viewBox="0 0 225 225">
  <g id="Grupo_32" data-name="Grupo 32" transform="translate(-708 -347)">
    <circle id="Elipse_7" data-name="Elipse 7" cx="112.5" cy="112.5" r="112.5" transform="translate(708 347)" fill="#05c7f2"/>
    <g id="bone" transform="translate(779.223 418.223)">
      <path id="Trazado_31" data-name="Trazado 31" d="M77.325,30.749a10.131,10.131,0,0,1,4.451-1.014,9.6,9.6,0,0,1,2.13.224A10.311,10.311,0,0,1,83.5,50.217a10.434,10.434,0,0,1-6.032-.807,6.97,6.97,0,0,0-7.922,1.271L51.172,69.052a6.925,6.925,0,0,0-1.289,7.887,10.2,10.2,0,0,1,.962,4.347,10.311,10.311,0,1,1-19.607-4.45,10.308,10.308,0,1,1-4.45-19.607,10.2,10.2,0,0,1,4.347.962A6.925,6.925,0,0,0,39.023,56.9L57.392,38.533a6.969,6.969,0,0,0,1.272-7.922,10.311,10.311,0,0,1,7.715-14.5,10.315,10.315,0,0,1,11.737,8.059,9.605,9.605,0,0,1,.224,2.13,10.142,10.142,0,0,1-1.014,4.451Zm0,0" transform="translate(-13.048 -12.548)" fill="#4dd0e1"/>
      <path id="Trazado_32" data-name="Trazado 32" d="M12.656,68.65a14.452,14.452,0,0,0,1.555.084l.046,0a14.044,14.044,0,0,0,.065,1.59,13.748,13.748,0,0,0,27.4-1.583,13.621,13.621,0,0,0-1.289-5.811,3.477,3.477,0,0,1,.608-3.994L59.413,40.564a3.532,3.532,0,0,1,4.052-.581A13.748,13.748,0,1,0,72.1,14.057a13.05,13.05,0,0,0-2.88-.306,12.923,12.923,0,0,0-.3-2.832,13.749,13.749,0,1,0-25.93,8.6,3.518,3.518,0,0,1-.589,4.034L24.036,41.925a3.486,3.486,0,0,1-4,.6,13.6,13.6,0,0,0-5.8-1.285A13.748,13.748,0,0,0,12.656,68.65ZM9.085,50.443a7,7,0,0,1,8.03-1.689A10.407,10.407,0,0,0,28.9,46.785L47.264,28.416a10.452,10.452,0,0,0,1.964-11.791,6.873,6.873,0,0,1,5.119-9.666,6.916,6.916,0,0,1,7.859,5.414,6.133,6.133,0,0,1,.141,1.378,6.723,6.723,0,0,1-.38,2.128,13.787,13.787,0,0,0-5.143,5.682,3.437,3.437,0,0,0,6.2,2.974,6.935,6.935,0,0,1,3.251-3.243,6.777,6.777,0,0,1,4.377-.515,6.875,6.875,0,0,1-.252,13.5,7.006,7.006,0,0,1-4.036-.526,10.456,10.456,0,0,0-11.809,1.954L36.186,54.075a10.4,10.4,0,0,0-1.973,11.771,6.781,6.781,0,0,1,.639,2.893,6.873,6.873,0,1,1-9.838-6.2,3.436,3.436,0,0,0-2.973-6.2,13.813,13.813,0,0,0-5.712,5.19,7.091,7.091,0,0,1-2.922.284,6.945,6.945,0,0,1-5.989-5.941,6.829,6.829,0,0,1,1.667-5.435Zm0,0" transform="translate(-0.491 -0.001)" fill="#012e52"/>
    </g>
  </g>
</svg>
